/* XPM */
static char *result[] = {
/* columns rows colors chars-per-pixel */
"64 64 6 1 ",
"  c #330617",
". c #F2B704",
"X c #F9DB82",
"o c #FEF8E6",
"O c #FEFBF3",
"+ c None",
/* pixels */
"++++++++++++++++++++++++++++++++++++++++++++++++++++++++++++++++",
"++++++++++++++++++++++++++++++++++++++++++++++++++++++++++++++++",
"++++++++++++++++++++++++++++++++++++++++++++++++++++++++++++++++",
"++++++++++++++++++++++++++++++++++++++++++++++++++++++++++++++++",
"++++++++++++++++++++++++++++++++++++++++++++++++++++++++++++++++",
"++++++++++++++++++++++++++++++++++++++++++++++++++++++++++++++++",
"++++++++++++++++++++++++++++++++++++++++++++++++++++++++++++++++",
"++++++++++++++++++++++++++++++++++++++++++++++++++++++++++++++++",
"++++++++++++++++++++++++++++++++    ++++++++++++++++++++++++++++",
"++++++++++++++++++++++++++++++++    ++++++++++++++++++++++++++++",
"++++++++++++++++++++++++++++++++    ++++++++++++++++++++++++++++",
"++++++++++++++++++++++++++++++++    ++++++++++++++++++++++++++++",
"++++++++++++++++++++++++        ....    ++++++++++++++++++++++++",
"++++++++++++++++++++++++        ....    ++++++++++++++++++++++++",
"++++++++++++++++++++++++        ....    ++++++++++++++++++++++++",
"++++++++++++++++++++++++        ....    ++++++++++++++++++++++++",
"++++++++++++++++++++    ........OOOO    ++++++++++++++++++++++++",
"++++++++++++++++++++    ........OOOO    ++++++++++++++++++++++++",
"++++++++++++++++++++    ........OOOO    ++++++++++++++++++++++++",
"++++++++++++++++++++    ........OOOO    ++++++++++++++++++++++++",
"++++++++++++++++++++++++        XXXX    ++++++++++++++++++++++++",
"++++++++++++++++++++++++        XXXX    ++++++++++++++++++++++++",
"++++++++++++++++++++++++        XXXX    ++++++++++++++++++++++++",
"++++++++++++++++++++++++        XXXX    ++++++++++++++++++++++++",
"++++++++++++++++++++    ............    ++++++++++++++++++++++++",
"++++++++++++++++++++    ............    ++++++++++++++++++++++++",
"++++++++++++++++++++    ............    ++++++++++++++++++++++++",
"++++++++++++++++++++    ............    ++++++++++++++++++++++++",
"++++++++++++++++++++++++        XXXX    ++++++++++++++++++++++++",
"++++++++++++++++++++++++        XXXX    ++++++++++++++++++++++++",
"++++++++++++++++++++++++        XXXX    ++++++++++++++++++++++++",
"++++++++++++++++++++++++        XXXX    ++++++++++++++++++++++++",
"++++++++++++++++++++++++++++    ....    ++++++++++++++++++++++++",
"++++++++++++++++++++++++++++    ....    ++++++++++++++++++++++++",
"++++++++++++++++++++++++++++    ....    ++++++++++++++++++++++++",
"++++++++++++++++++++++++++++    ....    ++++++++++++++++++++++++",
"++++++++++++++++++++++++    oooo....OOOO    ++++++++++++++++++++",
"++++++++++++++++++++++++    oooo....OOOO    ++++++++++++++++++++",
"++++++++++++++++++++++++    oooo....OOOO    ++++++++++++++++++++",
"++++++++++++++++++++++++    oooo....OOOO    ++++++++++++++++++++",
"++++++++++++++++++++++++    ....    XXXX    ++++++++++++++++++++",
"++++++++++++++++++++++++    ....    XXXX    ++++++++++++++++++++",
"++++++++++++++++++++++++    ....    XXXX    ++++++++++++++++++++",
"++++++++++++++++++++++++    ....    XXXX    ++++++++++++++++++++",
"++++++++++++++++++++++++    ........XXXX    ++++++++++++++++++++",
"++++++++++++++++++++++++    ........XXXX    ++++++++++++++++++++",
"++++++++++++++++++++++++    ........XXXX    ++++++++++++++++++++",
"++++++++++++++++++++++++    ........XXXX    ++++++++++++++++++++",
"++++++++++++++++++++++++++++            ++++++++++++++++++++++++",
"++++++++++++++++++++++++++++            ++++++++++++++++++++++++",
"++++++++++++++++++++++++++++            ++++++++++++++++++++++++",
"++++++++++++++++++++++++++++            ++++++++++++++++++++++++",
"++++++++++++++++++++++++++++++++++++++++++++++++++++++++++++++++",
"++++++++++++++++++++++++++++++++++++++++++++++++++++++++++++++++",
"++++++++++++++++++++++++++++++++++++++++++++++++++++++++++++++++",
"++++++++++++++++++++++++++++++++++++++++++++++++++++++++++++++++",
"++++++++++++++++++++++++++++++++++++++++++++++++++++++++++++++++",
"++++++++++++++++++++++++++++++++++++++++++++++++++++++++++++++++",
"++++++++++++++++++++++++++++++++++++++++++++++++++++++++++++++++",
"++++++++++++++++++++++++++++++++++++++++++++++++++++++++++++++++",
"++++++++++++++++++++++++++++++++++++++++++++++++++++++++++++++++",
"++++++++++++++++++++++++++++++++++++++++++++++++++++++++++++++++",
"++++++++++++++++++++++++++++++++++++++++++++++++++++++++++++++++",
"++++++++++++++++++++++++++++++++++++++++++++++++++++++++++++++++"
};
