/* XPM */
static char *result[] = {
/* columns rows colors chars-per-pixel */
"64 64 12 1 ",
"  c #080103",
". c #330617",
"X c #520C13",
"o c #731513",
"O c #771F21",
"+ c #2F1550",
"@ c #811F1B",
"# c #972318",
"$ c #B52F1D",
"% c #4B44A1",
"& c #765CA2",
"* c None",
/* pixels */
"************                                        ************",
"************                                        ************",
"************                                        ************",
"************                                        ************",
"********    ####$$$$@@@@$$$$$$$$$$$$@@@@$$$$$$$$####    ********",
"********    ####$$$$@@@@$$$$$$$$$$$$@@@@$$$$$$$$####    ********",
"********    ####$$$$@@@@$$$$$$$$$$$$@@@@$$$$$$$$####    ********",
"********    ####$$$$@@@@$$$$$$$$$$$$@@@@$$$$$$$$####    ********",
"****    ####XXXXXXXXXXXXXXXXXXXXXXXXXXXXXXXXXXXXXXXX####    ****",
"****    ####XXXXXXXXXXXXXXXXXXXXXXXXXXXXXXXXXXXXXXXX####    ****",
"****    ####XXXXXXXXXXXXXXXXXXXXXXXXXXXXXXXXXXXXXXXX####    ****",
"****    ####XXXXXXXXXXXXXXXXXXXXXXXXXXXXXXXXXXXXXXXX####    ****",
"****....XXXXooooooooXXXXOOOOooooooooXXXXooooooooooooXXXX....****",
"****....XXXXooooooooXXXXOOOOooooooooXXXXooooooooooooXXXX....****",
"****....XXXXooooooooXXXXOOOOooooooooXXXXooooooooooooXXXX....****",
"****....XXXXooooooooXXXXOOOOooooooooXXXXooooooooooooXXXX....****",
"****....ooooooooooooXXXXOOOOooooooooXXXXoooooooooooooooo....****",
"****....ooooooooooooXXXXOOOOooooooooXXXXoooooooooooooooo....****",
"****....ooooooooooooXXXXOOOOooooooooXXXXoooooooooooooooo....****",
"****....ooooooooooooXXXXOOOOooooooooXXXXoooooooooooooooo....****",
"****....OOOOooooooooXXXXooooOOOOooooXXXXoooooooooooooooo....****",
"****....OOOOooooooooXXXXooooOOOOooooXXXXoooooooooooooooo....****",
"****....OOOOooooooooXXXXooooOOOOooooXXXXoooooooooooooooo....****",
"****....OOOOooooooooXXXXooooOOOOooooXXXXoooooooooooooooo....****",
"****....OOOOooooOOOOXXXXooooOOOOooooXXXXoooooooo++++oooo....****",
"****....OOOOooooOOOOXXXXooooOOOOooooXXXXoooooooo++++oooo....****",
"****....OOOOooooOOOOXXXXooooOOOOooooXXXXoooooooo++++oooo....****",
"****....OOOOooooOOOOXXXXooooOOOOooooXXXXoooooooo++++oooo....****",
"****....ooooooooOOOOXXXXooooOOOOooooXXXXoooo++++%%%%++++....****",
"****....ooooooooOOOOXXXXooooOOOOooooXXXXoooo++++%%%%++++....****",
"****....ooooooooOOOOXXXXooooOOOOooooXXXXoooo++++%%%%++++....****",
"****....ooooooooOOOOXXXXooooOOOOooooXXXXoooo++++%%%%++++....****",
"****....ooooooooOOOOXXXXooooooooooooXXXXoooo++++%%%%&&&&....****",
"****....ooooooooOOOOXXXXooooooooooooXXXXoooo++++%%%%&&&&....****",
"****....ooooooooOOOOXXXXooooooooooooXXXXoooo++++%%%%&&&&....****",
"****....ooooooooOOOOXXXXooooooooooooXXXXoooo++++%%%%&&&&....****",
"****....ooooooooOOOOXXXXooooooooooooXXXXoooo++++%%%%&&&&....****",
"****....ooooooooOOOOXXXXooooooooooooXXXXoooo++++%%%%&&&&....****",
"****....ooooooooOOOOXXXXooooooooooooXXXXoooo++++%%%%&&&&....****",
"****....ooooooooOOOOXXXXooooooooooooXXXXoooo++++%%%%&&&&....****",
"****....ooooooooOOOOXXXXooooooooooooXXXXoooo++++%%%%%%%%....****",
"****....ooooooooOOOOXXXXooooooooooooXXXXoooo++++%%%%%%%%....****",
"****....ooooooooOOOOXXXXooooooooooooXXXXoooo++++%%%%%%%%....****",
"****....ooooooooOOOOXXXXooooooooooooXXXXoooo++++%%%%%%%%....****",
"****....OOOOooooooooXXXXooooOOOOooooXXXXoooo++++%%%%++++....****",
"****....OOOOooooooooXXXXooooOOOOooooXXXXoooo++++%%%%++++....****",
"****....OOOOooooooooXXXXooooOOOOooooXXXXoooo++++%%%%++++....****",
"****....OOOOooooooooXXXXooooOOOOooooXXXXoooo++++%%%%++++....****",
"****....OOOOooooooooXXXXooooOOOOooooXXXXoooooooo++++oooo....****",
"****....OOOOooooooooXXXXooooOOOOooooXXXXoooooooo++++oooo....****",
"****....OOOOooooooooXXXXooooOOOOooooXXXXoooooooo++++oooo....****",
"****....OOOOooooooooXXXXooooOOOOooooXXXXoooooooo++++oooo....****",
"****....ooooooooooooXXXXooooOOOOooooXXXXoooooooooooooooo....****",
"****....ooooooooooooXXXXooooOOOOooooXXXXoooooooooooooooo....****",
"****....ooooooooooooXXXXooooOOOOooooXXXXoooooooooooooooo....****",
"****....ooooooooooooXXXXooooOOOOooooXXXXoooooooooooooooo....****",
"****....ooooooooooooXXXXooooooooooooXXXXoooooooooooooooo....****",
"****....ooooooooooooXXXXooooooooooooXXXXoooooooooooooooo....****",
"****....ooooooooooooXXXXooooooooooooXXXXoooooooooooooooo....****",
"****....ooooooooooooXXXXooooooooooooXXXXoooooooooooooooo....****",
"********................................................********",
"********................................................********",
"********................................................********",
"********................................................********"
};
