/* XPM */
static char *result[] = {
/* columns rows colors chars-per-pixel */
"64 64 5 1 ",
"  c #805AD4",
". c #8E6AEB",
"X c #9371EB",
"o c #9876FC",
"O c #9E7EFC",
/* pixels */
"........oooooooooooooooo    ....oooooooooooooooooooo............",
"........oooooooooooooooo    ....oooooooooooooooooooo............",
"........oooooooooooooooo    ....oooooooooooooooooooo............",
"........oooooooooooooooo    ....oooooooooooooooooooo............",
"....ooooooooOOOOOOOOOOOO....ooooOOOOOOOOOOOOOOOOOOOOOOOOoooo....",
"....ooooooooOOOOOOOOOOOO....ooooOOOOOOOOOOOOOOOOOOOOOOOOoooo....",
"....ooooooooOOOOOOOOOOOO....ooooOOOOOOOOOOOOOOOOOOOOOOOOoooo....",
"....ooooooooOOOOOOOOOOOO....ooooOOOOOOOOOOOOOOOOOOOOOOOOoooo....",
"....ooooOOOOOOOOOOOOOOOOooooOOOOOOOOOOOOOOOOOOOOOOOOOOOOOOOO....",
"....ooooOOOOOOOOOOOOOOOOooooOOOOOOOOOOOOOOOOOOOOOOOOOOOOOOOO....",
"....ooooOOOOOOOOOOOOOOOOooooOOOOOOOOOOOOOOOOOOOOOOOOOOOOOOOO....",
"....ooooOOOOOOOOOOOOOOOOooooOOOOOOOOOOOOOOOOOOOOOOOOOOOOOOOO....",
"....ooooOOOOOOOOOOOOOOOOooooOOOOOOOOOOOOOOOOOOOOOOOOOOOOOOOOoooo",
"....ooooOOOOOOOOOOOOOOOOooooOOOOOOOOOOOOOOOOOOOOOOOOOOOOOOOOoooo",
"....ooooOOOOOOOOOOOOOOOOooooOOOOOOOOOOOOOOOOOOOOOOOOOOOOOOOOoooo",
"....ooooOOOOOOOOOOOOOOOOooooOOOOOOOOOOOOOOOOOOOOOOOOOOOOOOOOoooo",
"....ooooooooooooooooooooooooOOOOOOOOOOOOOOOOOOOOOOOOOOOOOOOOoooo",
"....ooooooooooooooooooooooooOOOOOOOOOOOOOOOOOOOOOOOOOOOOOOOOoooo",
"....ooooooooooooooooooooooooOOOOOOOOOOOOOOOOOOOOOOOOOOOOOOOOoooo",
"....ooooooooooooooooooooooooOOOOOOOOOOOOOOOOOOOOOOOOOOOOOOOOoooo",
"........ooooOOOOOOOOOOOOooooOOOOOOOOOOOOOOOOOOOOOOOOOOOOOOOOoooo",
"........ooooOOOOOOOOOOOOooooOOOOOOOOOOOOOOOOOOOOOOOOOOOOOOOOoooo",
"........ooooOOOOOOOOOOOOooooOOOOOOOOOOOOOOOOOOOOOOOOOOOOOOOOoooo",
"........ooooOOOOOOOOOOOOooooOOOOOOOOOOOOOOOOOOOOOOOOOOOOOOOOoooo",
"........ooooOOOOOOOOOOOOooooOOOOOOOOOOOOOOOOOOOOOOOOOOOOOOOOoooo",
"........ooooOOOOOOOOOOOOooooOOOOOOOOOOOOOOOOOOOOOOOOOOOOOOOOoooo",
"........ooooOOOOOOOOOOOOooooOOOOOOOOOOOOOOOOOOOOOOOOOOOOOOOOoooo",
"........ooooOOOOOOOOOOOOooooOOOOOOOOOOOOOOOOOOOOOOOOOOOOOOOOoooo",
"........ooooooooOOOOOOOO....ooooOOOOOOOOOOOOOOOOOOOOOOOOoooo....",
"........ooooooooOOOOOOOO....ooooOOOOOOOOOOOOOOOOOOOOOOOOoooo....",
"........ooooooooOOOOOOOO....ooooOOOOOOOOOOOOOOOOOOOOOOOOoooo....",
"........ooooooooOOOOOOOO....ooooOOOOOOOOOOOOOOOOOOOOOOOOoooo....",
"....    ....oooooooooooo    ....oooooooooooo....oooooooo........",
"....    ....oooooooooooo    ....oooooooooooo....oooooooo........",
"....    ....oooooooooooo    ....oooooooooooo....oooooooo........",
"....    ....oooooooooooo    ....oooooooooooo....oooooooo........",
"....    ....ooooOOOOOOOOXXXXOOOOOOOOOOOOOOOOooooOOOOOOOOOOOOoooo",
"....    ....ooooOOOOOOOOXXXXOOOOOOOOOOOOOOOOooooOOOOOOOOOOOOoooo",
"....    ....ooooOOOOOOOOXXXXOOOOOOOOOOOOOOOOooooOOOOOOOOOOOOoooo",
"....    ....ooooOOOOOOOOXXXXOOOOOOOOOOOOOOOOooooOOOOOOOOOOOOoooo",
"    ....    ooooOOOOOOOOOOOOOOOOOOOOOOOOOOOOooooOOOOOOOOOOOOoooo",
"    ....    ooooOOOOOOOOOOOOOOOOOOOOOOOOOOOOooooOOOOOOOOOOOOoooo",
"    ....    ooooOOOOOOOOOOOOOOOOOOOOOOOOOOOOooooOOOOOOOOOOOOoooo",
"    ....    ooooOOOOOOOOOOOOOOOOOOOOOOOOOOOOooooOOOOOOOOOOOOoooo",
"    ........ooooOOOOOOOOOOOOOOOOOOOOooooOOOOooooOOOOOOOOOOOOoooo",
"    ........ooooOOOOOOOOOOOOOOOOOOOOooooOOOOooooOOOOOOOOOOOOoooo",
"    ........ooooOOOOOOOOOOOOOOOOOOOOooooOOOOooooOOOOOOOOOOOOoooo",
"    ........ooooOOOOOOOOOOOOOOOOOOOOooooOOOOooooOOOOOOOOOOOOoooo",
"    ........ooooooooOOOOOOOOOOOOOOOOOOOOooooooooooooOOOOOOOOoooo",
"    ........ooooooooOOOOOOOOOOOOOOOOOOOOooooooooooooOOOOOOOOoooo",
"    ........ooooooooOOOOOOOOOOOOOOOOOOOOooooooooooooOOOOOOOOoooo",
"    ........ooooooooOOOOOOOOOOOOOOOOOOOOooooooooooooOOOOOOOOoooo",
"    ....    ....oooooooooooooooooooooooooooo....oooooooooooooooo",
"    ....    ....oooooooooooooooooooooooooooo....oooooooooooooooo",
"    ....    ....oooooooooooooooooooooooooooo....oooooooooooooooo",
"    ....    ....oooooooooooooooooooooooooooo....oooooooooooooooo",
"        ........................................................",
"        ........................................................",
"        ........................................................",
"        ........................................................",
"                                                                ",
"                                                                ",
"                                                                ",
"                                                                "
};
