/* XPM */
static char *result[] = {
/* columns rows colors chars-per-pixel */
"64 64 8 1 ",
"  c #141013",
". c #282321",
"X c #423934",
"o c #5A4E44",
"O c #DBA463",
"+ c #F4D29C",
"@ c white",
"# c None",
/* pixels */
"@@##############################################################",
"@@##############################################################",
"++##############################################################",
"++##############################################################",
"OO##############################################################",
"OO##############################################################",
"oo##############################################################",
"oo##############################################################",
"XX##############################################################",
"XX##############################################################",
"..##############################################################",
"..##############################################################",
"  ##############################################################",
"  ######################################################## #####",
"########################################################    ####",
"####################OOOOOO####OOOOOOOOOOOOOO############     ###",
"###################O.XX.O O###OXX.XX.XX.XX.O##########      ####",
"##################OX.XX.O  O##OXX.XX.XX.XX.O  ####        ######",
"##################.X.XX.O   O#OXX.XX.XX.XX.O          ##########",
"##################.X.XX.O    OOXX.XX.XX.XX.O##    ##############",
"##################.X.XX.O @@@ OXX.XX.XX.XX.O################### ",
"##################.X.XX.O@@ @@OXX.XX.XX.XX.O##################  ",
"##################.X.XX.O@@@@@OXX.XX.XX.XX.O########     #####  ",
"##################.X.XX.O@@@@@OXX.XX.XX.XX.O#####          ###  ",
"##################.X.XX.O @@@ OXX.XX.XX.XX.O#        ####   ##  ",
"##################.X.XX.O     OXX.XX.XX.XX.O     ##########     ",
"##################.X.XX.O     OXX.XX.XX.XX.O ################   ",
"##################.X.XXOO     OOX.XX.XX.XX.O################### ",
"##################.X.XOO       OO.XX.XX.XX.O####################",
"##################.X.XXOO     OOX.XX.XX.XX.O####################",
"##################.X.XX.O     OXX.XX.XX.XX.O####################",
"##################.X.XX.O     OXX.XX.XX.XX.O####################",
"##################.X.XX.O     OXX.XX.XX.XX.O################### ",
"##################.X.XX.O @@@ OXX.XX.XX.XX.O##################  ",
"##################.X.XX.O@@ @@OXX.XX.XX.XX.O########     #####  ",
"##################.X.XX.O@@@@@OXX.XX.XX.XX.O#####          ###  ",
"##################.X.XX.O@@@@@OXX.XX.XX.XX.O#        ####   ##  ",
"##################.X.XX.O @@@ OXX.XX.XX.XX.O     ##########     ",
"##################.X.XX.O     OXX.XX.XX.XX.O ################   ",
"##################.X.XX.O     OXX.XX.XX.XX.O################### ",
"##################.XOOOOO     OOOOOOOOOOOOOO####################",
"##################.O+++++     ++++++++++++++####################",
"##################O+XooXo+    +ooXooXooXooX+############## #####",
"##################+ooXooXo+   +ooXooXooXooX+############    ####",
"##################+XooXooXo+  +ooXo   oXooX+############     ###",
"###################+XooXooXo+ +ooXo       X+##########      ####",
"####################+XooXooXo++ooXooXo        ####        ######",
"#####################+XooXooXo+ooXooXooXoo            ##########",
"######################++++++++++++++++++++++##    ##############",
"################################################################",
"################################################################",
"################################################################",
"################################################################",
"################################################################",
"################################################################",
"################################################################",
"################################################################",
"################################################################",
"################################################################",
"################################################################",
"################################################################",
"################################################################",
"################################################################",
"################################################################"
};
