/* XPM */
static char *result[] = {
/* columns rows colors chars-per-pixel */
"64 64 13 1 ",
"  c #080103",
". c #330617",
"X c #3C1866",
"o c #471C45",
"O c #431C70",
"+ c #431C71",
"@ c #461E75",
"# c #4D2381",
"$ c #562990",
"% c #5E3190",
"& c #633CA4",
"* c #6E46B7",
"= c #7E58D2",
/* pixels */
"................................................................",
"................................................................",
"................................................................",
"................................................................",
"****************&&&&********************************&&&&********",
"****************&&&&********************************&&&&********",
"****************&&&&********************************&&&&********",
"****************&&&&********************************&&&&********",
"================&&&&================================&&&&========",
"================&&&&================================&&&&========",
"================&&&&================================&&&&========",
"================&&&&================================&&&&========",
"oooooooooooooooooooooooooooooooooooooooooooooooooooooooooooooooo",
"oooooooooooooooooooooooooooooooooooooooooooooooooooooooooooooooo",
"oooooooooooooooooooooooooooooooooooooooooooooooooooooooooooooooo",
"oooooooooooooooooooooooooooooooooooooooooooooooooooooooooooooooo",
"%%%%%%%%%%%%%%%%OOOO%%%%%%%%%%%%%%%%%%%%%%%%%%%%%%%%OOOO%%%%%%%%",
"%%%%%%%%%%%%%%%%OOOO%%%%%%%%%%%%%%%%%%%%%%%%%%%%%%%%OOOO%%%%%%%%",
"%%%%%%%%%%%%%%%%OOOO%%%%%%%%%%%%%%%%%%%%%%%%%%%%%%%%OOOO%%%%%%%%",
"%%%%%%%%%%%%%%%%OOOO%%%%%%%%%%%%%%%%%%%%%%%%%%%%%%%%OOOO%%%%%%%%",
"$$$$$$$$$$$$%%%%####%%%%$$$$$$$$$$$$$$$$$$$$$$$$%%%%####%%%%$$$$",
"$$$$$$$$$$$$%%%%####%%%%$$$$$$$$$$$$$$$$$$$$$$$$%%%%####%%%%$$$$",
"$$$$$$$$$$$$%%%%####%%%%$$$$$$$$$$$$$$$$$$$$$$$$%%%%####%%%%$$$$",
"$$$$$$$$$$$$%%%%####%%%%$$$$$$$$$$$$$$$$$$$$$$$$%%%%####%%%%$$$$",
"$$$$$$$$$$$$$$$$####$$$$$$$$$$$$$$$$$$$$$$$$$$$$$$$$####$$$$$$$$",
"$$$$$$$$$$$$$$$$####$$$$$$$$$$$$$$$$$$$$$$$$$$$$$$$$####$$$$$$$$",
"$$$$$$$$$$$$$$$$####$$$$$$$$$$$$$$$$$$$$$$$$$$$$$$$$####$$$$$$$$",
"$$$$$$$$$$$$$$$$####$$$$$$$$$$$$$$$$$$$$$$$$$$$$$$$$####$$$$$$$$",
"OOOO############OOOO############OOOO################OOOO########",
"OOOO############OOOO############OOOO################OOOO########",
"OOOO############OOOO############OOOO################OOOO########",
"OOOO############OOOO############OOOO################OOOO########",
"####%%%%%%%%%%%%%%%%%%%%%%%%%%%%####%%%%%%%%%%%%%%%%%%%%%%%%%%%%",
"####%%%%%%%%%%%%%%%%%%%%%%%%%%%%####%%%%%%%%%%%%%%%%%%%%%%%%%%%%",
"####%%%%%%%%%%%%%%%%%%%%%%%%%%%%####%%%%%%%%%%%%%%%%%%%%%%%%%%%%",
"####%%%%%%%%%%%%%%%%%%%%%%%%%%%%####%%%%%%%%%%%%%%%%%%%%%%%%%%%%",
"####$$$$$$$$$$$$$$$$$$$$$$$$%%%%####%%%%$$$$$$$$$$$$$$$$$$$$$$$$",
"####$$$$$$$$$$$$$$$$$$$$$$$$%%%%####%%%%$$$$$$$$$$$$$$$$$$$$$$$$",
"####$$$$$$$$$$$$$$$$$$$$$$$$%%%%####%%%%$$$$$$$$$$$$$$$$$$$$$$$$",
"####$$$$$$$$$$$$$$$$$$$$$$$$%%%%####%%%%$$$$$$$$$$$$$$$$$$$$$$$$",
"####$$$$$$$$$$$$$$$$$$$$$$$$$$$$####$$$$$$$$$$$$$$$$$$$$$$$$$$$$",
"####$$$$$$$$$$$$$$$$$$$$$$$$$$$$####$$$$$$$$$$$$$$$$$$$$$$$$$$$$",
"####$$$$$$$$$$$$$$$$$$$$$$$$$$$$####$$$$$$$$$$$$$$$$$$$$$$$$$$$$",
"####$$$$$$$$$$$$$$$$$$$$$$$$$$$$####$$$$$$$$$$$$$$$$$$$$$$$$$$$$",
"OOOO############OOOO############OOOO################OOOO########",
"OOOO############OOOO############OOOO################OOOO########",
"OOOO############OOOO############OOOO################OOOO########",
"OOOO############OOOO############OOOO################OOOO########",
"%%%%%%%%%%%%%%%%####%%%%%%%%%%%%%%%%%%%%%%%%%%%%%%%%####%%%%%%%%",
"%%%%%%%%%%%%%%%%####%%%%%%%%%%%%%%%%%%%%%%%%%%%%%%%%####%%%%%%%%",
"%%%%%%%%%%%%%%%%####%%%%%%%%%%%%%%%%%%%%%%%%%%%%%%%%####%%%%%%%%",
"%%%%%%%%%%%%%%%%####%%%%%%%%%%%%%%%%%%%%%%%%%%%%%%%%####%%%%%%%%",
"$$$$$$$$$$$$$$$$####$$$$$$$$$$$$$$$$$$$$$$$$$$$$$$$$####%%%%$$$$",
"$$$$$$$$$$$$$$$$####$$$$$$$$$$$$$$$$$$$$$$$$$$$$$$$$####%%%%$$$$",
"$$$$$$$$$$$$$$$$####$$$$$$$$$$$$$$$$$$$$$$$$$$$$$$$$####%%%%$$$$",
"$$$$$$$$$$$$$$$$####$$$$$$$$$$$$$$$$$$$$$$$$$$$$$$$$####%%%%$$$$",
"############++++@@@@################################XXXX########",
"############++++@@@@################################XXXX########",
"############++++@@@@################################XXXX########",
"############++++@@@@################################XXXX########",
"                                                                ",
"                                                                ",
"                                                                ",
"                                                                "
};
